<?xml version="1.0"?><svg version="1.2" baseProfile="tiny-ps" viewBox="0 0 300 300" xmlns="http://www.w3.org/2000/svg" xmlns:xlink="http://www.w3.org/1999/xlink"><title>DK Football Coaching</title><g><g fill="#fff" transform="matrix(.1 0 0 -.1 0 300)"><path d="M1360 2994c-95-12-215-38-305-65l-100-31-110-53c-433-210-714-574-816-1055L7 1685l-1-175-1-175 19-100c38-203 116-393 237-575l63-95 120-120 121-121 90-61c170-115 346-190 552-235l98-22h185l185-1 112 23c211 42 387 115 564 233l94 63 110 111 110 110 63 92c34 51 85 137 112 192l50 100 36 108 35 108 21 120 20 120-5 175-6 175-20 90c-45 192-112 349-217 507l-66 99-91 96c-225 235-479 378-787 444l-95 20-160 4c-88 2-176 1-195-1z"/></g><g fill="#dedddd" transform="matrix(.1 0 0 -.1 0 300)"><path d="M1375 2939c-250-24-474-106-692-251l-108-72-105-106-106-105-63-94c-142-213-214-416-242-676l-11-110 7-105c14-220 64-402 162-591l54-106 64-85 63-84 95-91 95-90 93-63c124-83 228-134 368-180l116-39 95-17 95-17h320l101 21c202 43 368 112 535 224l94 62 116 115 115 116 63 94c148 223 229 466 246 741l7 105-11 105c-39 354-183 654-428 891-190 185-415 311-664 373l-104 26-110 10c-121 11-143 11-260-1zm-285-629c36-5 95-18 132-30l66-20 62-42 62-41 37-48c20-26 39-48 43-48 3-1 60 53 125 119l118 121 85-3 85-3-130-135c-71-74-151-158-177-186l-48-50 16-79 16-80-5-130-5-130-26-81-26-81-38-59-38-59-49-43-48-42-61-30-61-30-70-15c-38-7-119-17-180-20l-110-7-38 9-38 8 53 52 53 53 115 9 115 10 57 21 57 21 51 46 51 46 25 49c13 26 32 76 41 111l16 62 1 117 1 116-8 9-9 8-181-190c-99-104-265-275-367-378l-186-188-78 3-79 3 431 452c238 249 432 457 432 464s-11 32-26 56l-25 43-50 40-50 40-67 22-67 21-267 5-268 4v118h465l65-10zm1209-67c-41-43-182-189-312-325l-237-246v-16c0-9 8-23 18-31 9-8 168-139 352-291s339-280 344-285l10-9h-190l-295 241c-162 132-310 256-329 275l-35 34v137l289 297 288 296h173l-76-77zM473 903l-33-4v-49l28-1 27-2-27-4-28-4v-59h-20v130l43-2 42-1-32-4zm177-20 21-27-6-26c-8-29-23-50-37-50h-9l15 16 16 15v65l-12 12-12 12h-54l-12-16-13-15v-62l18-13 19-14h-12c-14 0-42 40-42 61 0 9 9 28 21 43l20 26h58l21-27zm160 7 20-20v-23c0-25-26-67-41-67-5 0 0 9 11 20 24 24 25 48 5 77l-15 22-28 4-27 4 28 2 27 1 20-20zm118 13-28-4-2-62-2-62-3 62-4 62-22 4-22 4h110l-27-4zm116 1 16-6v-17c0-24-20-41-46-41h-23l-4-32-4-33-1 68-2 67h24c13 0 31-3 40-6zm143-56c13-34 21-63 19-65-2-3-7 5-11 16l-6 21h-69v-14c0-8-4-17-9-21l-10-6 15 46c15 43 32 66 19 25l-6-20h25c30 0 29-2 15 39l-12 33-8-14-9-13v11c0 12 10 24 19 24 3 0 16-28 28-62zm111-61 37-4-42-1-43-2 2 68 2 67 3-62 4-62 37-4zm82 64v-60l33-4 32-4-42-1-43-2v130h20v-59zm238 52c-10-2-26-2-35 0l-18 5h70l-17-5zm152-13 20-20v-23c0-25-26-67-41-67-5 0 0 9 11 20 24 24 25 48 5 77l-15 22-28 4-27 4 28 2 27 1 20-20zm140-49c11-29 18-56 15-59-3-4-8 4-12 16l-5 22h-66l-5-22c-4-12-9-20-11-17-5 5 27 100 41 122l5 9 8-9c5-4 18-32 30-62zm148 62c-10-2-26-2-35 0l-18 5h70l-17-5zm102-53h39l4 33 4 32V775l-4 33-4 32h-78l-4-32-4-33v140l4-32 4-33h39zm107-37-4-38v140l4-32c2-18 2-50 0-70zm103 42c19-30 38-55 42-55s9 26 11 58l3 57 2-67 2-68h-10c-5 0-27 26-47 57l-38 57-6-60-6-59-1 68-2 67h8c4 0 23-25 42-55zm193 48c-7-2-21-2-30 0l-18 5h60l-12-5zM720 881c-5-11-10-30-10-42v-22l17-19c20-22 11-24-11-2l-16 15v65l12 12c17 17 20 15 8-7zm825-9-14-28 6-22 6-23 31-14 31-15-25 6c-29 7-60 39-60 63 0 15 26 61 35 61 2 0-3-13-10-28zm135 9c-5-11-10-30-10-42v-22l17-19c20-22 11-24-11-2l-16 15v65l12 12c17 17 20 15 8-7zm304-6-16-25 6-25 6-25 33-15 32-15-25 6c-14 4-33 13-42 22l-18 15v50l17 19c23 25 26 22 7-7zm512 9-16-15v-58l22-15c12-9 18-16 13-16-16 0-31 13-43 37l-12 22 7 18c8 25 24 43 35 43h9l-15-16zm-1432-81c-6-9-17-19-25-22l-14-4 17 17 17 17-6 17-6 17 14-13 14-13-11-16zm1516 7v-30h-17l4 24 5 24-19 5-18 5 23 1 22 1v-30zM990 875v-26l28 3 27 3v40l-27 3-28 3v-26zm871-5c-14-42-15-40 15-40h25l-7 23c-3 12-10 28-14 36l-7 13-12-32z"/></g><g fill="#b2b0b1" transform="matrix(.1 0 0 -.1 0 300)"><path d="M1395 2940c-310-26-599-148-850-360l-80-68-66-79c-210-250-321-527-344-853l-6-95 11-115 11-115 24-101c105-441 421-806 852-986l97-40 111-28 110-28 115-12 115-11 85 6c120 9 239 31 350 65l95 29 104 51c57 28 145 79 195 113l91 62 105 105 105 105 63 93 64 93 48 102c83 174 122 318 141 521l10 109-10 116c-15 151-40 263-90 397l-41 109-46 80c-70 120-147 220-249 320-110 109-219 188-358 261l-104 54-104 34-104 34-95 15c-125 20-244 26-355 17zm-269-635 89-16 74-35 75-35 67-69 67-69 115 119 115 120h184l-181-189-181-188 15-69 15-69v-224l-15-73-15-73-40-81-39-80-51-51-50-50-59-32-60-31-76-20-76-20-118-6-118-7-38 7-38 7 57 58 58 59 106 4 107 5 58 22c110 43 179 114 218 226l21 60 10 90 11 90-7 58-8 58-8-3c-4-2-127-127-271-278-145-151-306-319-359-373l-95-98-86 3-86 3 369 385c203 212 398 417 434 457l65 72-20 40c-12 22-38 57-58 77l-36 37-61 28-61 28-70 11-70 10H560v120h477l89-15zm1218-17c-16-17-156-164-311-327-156-162-283-300-283-306s163-146 362-311l361-299-96-3-96-3-324 266-325 266-6 22c-3 12-6 46-6 75v53l190 197c104 108 234 243 287 299l98 101 89 1 90 1-30-32zM473 903l-33-4v-49l28-1 27-2-27-4-28-4v-59h-20v130l43-2 42-1-32-4zm170-5 17-13 6-30 6-31-19-21-18-22-27-7-27-6-25 26-26 25v51l20 20 20 20h28c16 0 36-6 45-12zm165-4 22-15v-68l-27-21-27-21-26 6c-13 4-31 11-37 17l-13 10v71l17 19 16 18h53l22-16zm125 9-23-4V780h-20v119l-22 4-23 4h110l-22-4zm122-28c0-16 4-36 8-43l8-12-6-20-6-20h-34l13 9 14 8-4 19-3 19-29 3-29 4 5-31 5-31h-17v131l38-3 37-3v-30zm134-26c13-33 20-63 16-67-3-3-8 4-12 16l-5 22h-56l-16-22-17-23 7 25c12 45 43 110 52 110 5 0 19-27 31-61zm109-62 37-4-42-1-43-2 2 68 2 67 3-62 4-62 37-4zm82 64v-60l33-4 32-4-42-1-43-2v130h20v-59zm235 52c-11-2-29-6-41-8l-21-5-10-22-10-23 8-22c4-12 17-27 29-33l21-11 22 6 22 6-18-11-17-11-23 7c-12 3-30 13-39 22l-18 15v51l22 23 21 23 36-1 36-1-20-5zm157-10 18-16v-66l-27-21-27-21-26 6c-13 4-31 11-37 17l-13 10v71l17 19 16 18h60l19-17zm136-45c22-61 24-88 2-49l-11 21h-48l-11-21c-22-39-20-12 2 49l22 62h22l22-62zm128 52-39-7-14-19c-7-10-13-26-13-35v-18l27-21 27-21 26 6 25 5-18-11-18-11-24 6c-13 3-31 13-39 22l-16 15v59l20 20 20 20 38-1 37-1-39-8zm124-50h39l4 33 4 32V775l-4 33-4 32h-78l-4-32-4-33v140l4-32 4-33h39zm107-37-4-38v140l4-32c2-18 2-50 0-70zm107 42c20-30 38-55 41-55s2 25-1 55l-7 55h23V780h-25l-35 53-35 52-6-55-6-55-1 68-2 67h9c4 0 25-25 45-55zm206 46v-8l-25 5-25 4-26-16-25-17 3-32 3-32 25-12 25-13h-21c-26 0-40 15-49 52l-7 27 26 25 25 26h71v-9zm0-91v-30l-17 1-18 1 13 5 12 5v37l-17 4-18 5 23 1 22 1v-30zM562 888l-12-12v-66l25-16 25-16 25 16 25 16v59l-16 15-15 16h-23c-12 0-27-5-34-12zm165-6-17-19v-43l20-20c22-22 33-24 60-10l18 9 6 27 7 26-16 24-15 24h-47l-16-18zm267 3-7-16 11-11 10-10 18 4 19 3v40l-23 3-22 3-6-16zm148-24-11-31h25c27 0 29 5 10 39l-13 24-11-32zm545 21-17-19v-43l20-20c22-22 33-24 60-10l18 9 6 27 7 26-16 24-15 24h-47l-16-18zm175-17c-16-35-16-35 13-35 28 0 30 5 12 38l-13 23-12-26z"/></g><g fill="#747172" transform="matrix(.1 0 0 -.1 0 300)"><path d="M1260 2920c-198-35-397-116-571-231l-94-63-120-120-121-121-55-85c-103-157-175-328-215-510l-19-85v-410l18-85c42-194 117-368 230-533l62-90 95-96 96-96 81-58c45-32 128-82 185-112l103-54 105-35c58-19 143-43 190-53l85-18h390l85 19c408 89 745 331 955 687l55 93 41 105 41 104 26 111 26 111 1 205v205l-19 84c-28 129-61 225-120 346l-54 110-64 89-63 89-91 91-90 91-95 68-94 67-110 54-110 55-100 30c-55 17-143 37-195 46l-95 15-135-1-135-1-105-18zm1110-601c0-5-138-154-307-330-170-176-309-326-311-334l-3-13 50-39c140-107 678-559 674-566l-4-7h-180l-302 247c-166 135-317 260-334 276l-33 31v143l292 301 292 302h166v-11zm-1155-32 80-27 52-34c28-20 73-60 100-91l48-56 115 121 115 121 93-3 92-3-176-183-176-184 6-41c3-23 11-80 17-126l11-83-12-100-11-100-24-69c-31-92-68-154-130-214-63-61-127-97-225-125l-75-22-170-5-170-5 65 66 64 66h141l67 14c77 17 117 36 174 81l40 33 32 60 32 59 15 67 16 67-3 116-3 117-341-355c-188-195-353-364-366-377l-25-23-86 3-85 3 310 325c170 179 366 385 435 457l125 133-26 44-26 44-46 41-46 40-54 20-53 21-93 11-93 11-166-6-166-7-27 7-26 6v120l288-4 287-4 80-27zM473 903l-33-4v-49l33-2 32-1-32-4-33-4v-69h-20v140l43-2 42-1-32-4zm181-15c9-12 16-33 16-46v-23l-25-24-24-25h-51l-20 20-20 20v56l16 22 15 22h78l15-22zm158 5 18-16v-67l-20-20-20-20h-51l-24 25c-28 27-31 45-14 78 16 29 28 37 63 37h29l19-17zm126 10-28-4V770h-20v129l-27 4-28 4h130l-27-4zm121-7 12-15-10-20-11-20 10-6c5-3 10-15 10-25v-19l-19-11c-11-5-31-10-45-10h-26v140h68l11-14zm129-38c11-29 23-61 27-70l7-18h-9c-6 0-15 11-21 25l-12 25h-50l-11-27-11-28-5 12c-3 7 6 40 19 73l23 60h24l19-52zm82-8v-60h60v-20h-80v140h20v-60zm110 0v-60h60v-20h-80v140h20v-60zm250 51v-9l-20 5-20 5-25-16-25-16v-56l12-12 12-12h66v-23l-42 6-42 6-13 17c-7 10-13 30-13 46v28l20 20 20 20h70v-9zm142-8 18-16v-67l-20-20-20-20h-51l-24 25c-28 27-31 45-14 78 16 29 28 37 63 37h29l19-17zm118 13c0-2 11-33 25-70l25-66h-10c-6 0-15 11-20 25l-10 25h-50l-11-27-11-28-5 12c-2 7 6 39 18 73l22 60h13c8 0 14-2 14-4zm180-5v-8l-24 4-24 5-21-11-21-12v-65l12-12 12-12h67l-6-10-6-10h-55l-22 16-22 15v78l22 15 22 16h66v-9zm52-18 3-28h70l3 28 3 27h19V781l-9-6-10-5-3 32-3 33h-70l-3-33-3-32-10 5-9 6v129h19l3-27zm158-37v-65l-10-6-10-6v141h20v-64zm94 12 36-52v104h20V770h-9c-5 0-26 25-47 56l-39 57-6-59-6-59-1 73-2 72h9c4 0 25-23 45-52zm206 42v-10l-25 6-25 6-25-16-25-16v-49l16-15 15-16h59v40h-15c-8 0-15 5-15 11v10l23-3 22-3 3-29 4-29-14-8c-7-5-26-9-41-9h-28l-24 25-25 24v45l22 23 21 23h77v-10zM566 884l-16-15v-55l12-12 12-12h55l11 19c5 11 10 28 10 39v19l-18 16c-23 21-46 22-66 1zm158-10-17-26 9-26 9-27 28-3 28-3 15 12 14 11v67l-19 11c-11 5-27 10-35 10h-16l-16-26zm276 1v-25h14c7 0 19 7 27 16l13 16-15 9c-8 5-20 9-26 9h-13v-25zm0-60v-26l23 3 22 3v40l-22 3-23 3v-26zm146 51c-8-32-4-39 17-34l15 3-12 30-13 30-7-29zm538 8-17-26 9-26 9-27 28-3 28-3 15 12 14 11v67l-19 11c-11 5-27 10-35 10h-16l-16-26zm177-14-10-30h48l-10 30c-6 17-12 30-14 30s-8-13-14-30z"/></g><g fill="#494646" transform="matrix(.1 0 0 -.1 0 300)"><path d="M1375 2934c-16-2-73-11-125-20l-95-16-104-35c-540-179-916-639-982-1198l-12-100 6-135 6-135 21-97c27-129 71-252 132-369l50-97 63-84 63-84 100-95 99-96 93-62c163-109 331-179 534-223l101-22h360l88 17c184 37 370 115 536 225l84 55 99 96 100 95 63 85 64 84 54 106c66 127 109 247 139 384l22 102v185l1 185-18 88c-39 192-108 362-213 519l-66 99-91 96-92 96-98 73-98 73-107 54c-121 62-226 99-357 128l-90 20-150 4c-82 2-163 1-180-1zm-203-633c124-32 238-101 288-175 14-20 29-36 34-36s59 52 120 116l111 115 94-3 94-3-177-185-177-185 6-35c3-19 11-64 17-100l11-65-6-100-6-100-16-60c-9-33-31-93-50-133l-35-73-59-60-60-59-73-35-73-34-77-15-77-16H780v8c0 4 26 33 58 65l58 57h54c30 0 86 5 124 10l69 10 59 26 58 27 46 49 45 49 20 45c11 24 27 75 34 112l15 67v220l-93-95c-50-53-217-225-370-383l-279-287H510v8c0 5 195 213 433 462l432 454-4 15c-13 61-106 147-195 180l-56 21-105 10-106 10-153-7-153-6-27 7-27 7 3 57 3 57 115 6c63 4 185 5 270 3l155-3 77-20zm1206 20c-1-5-144-156-315-335l-313-325 6-16c4-8 14-20 23-24 26-14 696-571 699-581l4-10h-197l-300 246c-165 135-315 259-332 277l-33 31v147l292 300 291 299h179l-4-9zM653 892l17-15v-67l-20-20-20-20h-60l-20 20-20 20v67l18 15c34 31 70 31 105 0zm141 17 25-12 11-26 11-27-10-27c-11-29-39-47-72-47h-23l-23 22-23 21v24c0 34 17 62 43 73 30 12 32 12 61-1zm268-16 12-15-12-19-12-19h20v-23c0-13-5-28-12-35l-12-12h-66v139l18 3c24 6 49-2 64-19zm563 17c23-10 21-11-23-15-17-1-39-8-47-15l-15-12v-47l16-15 15-16h70l-6-10-6-10h-65l-22 16-22 15v76l18 15c30 27 54 32 87 18zm129-1 25-12 11-26 11-27-10-27c-11-29-39-47-72-47h-23l-23 22-23 21v27c0 29 15 52 45 68 25 14 29 14 59 1zm300 5c9-3 16-10 16-14v-9l-30 1-29 1-16-13-15-12v-54l12-12 12-12h66v-20h-71l-24 25-25 24v18c0 25 28 63 54 73 27 11 31 11 50 4zm526-15v-9h-80l-12-25-11-24 17-26 16-25h60v40h-41l6 10c3 6 17 10 31 10h25l-3-37-3-38-40-3-40-3-23 21-22 21v27c0 16 6 36 13 45 21 30 107 42 107 16zm-2075 1-6-10h-59v-40h61l-6-10c-3-5-17-10-31-10h-24v-60h-20v140h91l-6-10zm450 0c-3-5-15-10-26-10h-19V770h-20v120h-19c-11 0-23 5-26 10l-6 10h122l-6-10zm235-40c10-25 21-55 24-67l7-23h-23l-5 20-5 20h-56l-15-22c-26-39-26-16 0 55l26 68 15-3 14-3 18-45zm80-10v-60h71l-6-10-6-10h-79v140h20v-60zm110 0v-60h71l-6-10-6-10h-79v140h20v-60zm536-9c25-66 23-93-3-53l-15 22h-46l-15-22c-27-41-27-13-1 56l26 67 15-3 15-3 24-64zm214 44v-25h60v50h30V768l-12 4-13 5-3 26-3 27h-58l-3-27-3-26-12-5-13-4v142h30v-25zm150-46v-71l-12 4-13 5-3 66-3 67h31v-71zm92 25 33-47 3 47 3 46h19V770h-10c-5 0-24 21-42 48l-33 47-5-44-5-44-12-5-13-4v142h29l33-46zM572 884l-22-15v-20c0-11 5-29 10-40l11-19h58l11 19c15 29 12 49-10 71-24 24-29 24-58 4zm166 5-18-10v-65l12-12c7-7 21-12 33-12s26 5 33 12l12 12v55l-22 15c-26 19-27 19-50 5zm268 4c-3-4-6-12-6-20v-13h40v14c0 15-24 28-34 19zm-6-78v-25h41l6 16 6 16-14 9c-8 5-20 9-26 9h-13v-25zm698 74-18-10v-65l12-12c7-7 21-12 33-12 28 0 45 19 45 50 0 32-10 46-35 53l-20 6-17-10zm-552-24c-10-26-7-35 9-35h15v13c0 6-4 18-9 25l-8 14-7-17zm720 0c-10-26-7-35 9-35h15v13c0 6-4 18-9 25l-8 14-7-17z"/></g><g fill="#221f20" transform="matrix(.1 0 0 -.1 0 300)"><path d="M1375 2934C732 2864 223 2410 88 1787l-22-102v-380l22-97c43-195 109-350 219-516l57-87 111-110 110-111 90-61c170-114 353-193 548-235l102-21 175-1 175-1 89 18c198 40 372 113 540 224l101 67 111 111 110 110 67 101c110 166 174 320 218 524l23 105v360l-22 102c-42 195-114 364-226 528l-61 90-105 105-105 105-82 58c-46 32-130 83-189 113l-107 54-91 29c-50 16-129 37-176 46l-85 16-135 3c-74 2-153 2-175 0zm-309-614 97-12 70-24 71-23 54-38c30-20 72-59 95-85l41-49 121 121 120 120h175v-13c0-8-12-24-26-38-14-13-93-94-175-180l-149-157 16-93 16-94-5-110-6-110-16-60c-9-33-30-88-46-122l-30-62-49-55c-28-30-73-68-100-86l-50-32-78-26-77-25-185-4-185-5 65 66 64 66h51c77 1 177 17 239 40l55 21 49 44 48 44 32 68 31 68 10 65c6 36 11 107 11 158v92h-8c-4 0-108-105-230-232-122-128-284-297-359-376l-138-143-95 3-95 3 438 458c240 252 437 464 437 471 0 21-59 103-93 129-50 37-90 56-164 73l-68 17-245 1-245 1-3 59-3 59 10 6c5 3 99 7 210 9l200 3 97-11zm1314 3c0-5-140-154-310-332-171-178-310-329-310-336 0-6 162-145 360-309s360-302 360-307v-9h-197l-314 256c-173 141-322 265-332 277l-18 20 3 78 3 78 285 294 285 295 93 1 92 1v-7zM633 909c30-16 37-28 37-71v-37l-22-15-22-16h-63l-15 18c-8 9-18 25-21 34l-6 17 10 29 10 29 22 11c29 14 44 14 70 1zm190-20 17-21v-45l-21-27-20-26h-69l-20 20-20 20v61l26 26 25 25 32-6 32-6 18-21zm221 21 26-10v-89l1-24-13-8c-7-5-30-9-50-9h-38v138l13 5c19 8 34 8 61-3zm580 4c9-3 16-10 16-14v-9l-42-3-43-3-9-27-10-27 19-21 18-20h67v-20h-87l-18 20-18 20v59l13 17c24 27 64 40 94 28zm159-25 17-21v-45l-21-27-20-26h-69l-20 20-20 20v61l26 26 25 25 32-6 32-6 18-21zm281 25 16-6-6-9c-3-5-20-9-38-9h-32l-12-12c-7-7-12-22-12-34v-23l17-16 16-17 29 4 28 5v-28l-42 3-41 3-20 26-19 27 7 31 7 31 26 15c29 16 52 18 76 9zm503 0 23-6-6-9c-3-5-20-9-39-9h-34l-15-22c-20-29-20-34 4-58l20-20h40v40h-15c-8 0-15 5-15 10v10h61l-3-37-3-38-42-3-42-3-20 20-21 21v67l18 15c14 13 30 20 62 27 3 0 15-2 27-5zM510 900v-10h-70v-40h60v-20h-60v-60h-20v140h90v-10zm450 0v-10h-50V770h-20v120h-50v20h120v-10zm237-55c27-69 28-75 9-75h-14l-5 20-5 20h-54l-5-20-5-20h-14c-18 0-18 0 4 57 11 26 22 56 25 66l7 18 17-3 17-3 23-60zm73 5v-60h70v-20h-100v140h30v-60zm110 0v-60h70v-20h-90v140h20v-60zm536-4c28-69 29-76 10-76h-14l-5 20-5 20h-54l-5-20-5-20h-14c-8 0-14 2-14 4 0 4 22 66 39 109l11 28 16-3 16-3 24-59zm214 39v-25h60v50h30V770h-30v60h-60v-60h-30v140h30v-25zm150-45v-70h-30v140h30v-70zm97 22 33-47v95h20V770h-25l-30 48-30 47-3-47-3-48h-29v140h18l17-1 32-47zm-1817 9c-5-11-10-26-10-34 0-18 32-47 53-47h17l16 25 17 26-11 24-12 25h-59l-11-19zm166 4c-3-9-6-27-6-40v-23l14-12 15-12 23 4 23 3 9 28 10 28-10 17-11 17-30 3-30 3-7-16zm274 0v-15h40v30h-40v-15zm0-60v-25h19c11 0 23 5 27 12l7 11-18 14c-27 19-35 16-35-12zm686 60c-3-9-6-27-6-40v-23l14-12 15-12 23 4 23 3 9 28 10 28-10 17-11 17-30 3-30 3-7-16zm-539-14-5-21h14c16 0 18 9 5 28l-8 14-6-21zm720 4c-8-20-4-29 11-24l9 4-7 19-7 20-6-19z"/></g></g></svg>